<?xml version="1.0" standalone="no"?><svg xmlns="http://www.w3.org/2000/svg" viewBox="0 0 1440 320"><path fill="#0099ff" fill-opacity="1" d="M0,224L18.5,202.7C36.9,181,74,139,111,117.3C147.7,96,185,96,222,106.7C258.5,117,295,139,332,149.3C369.2,160,406,160,443,170.7C480,181,517,203,554,213.3C590.8,224,628,224,665,229.3C701.5,235,738,245,775,229.3C812.3,213,849,171,886,165.3C923.1,160,960,192,997,176C1033.8,160,1071,96,1108,74.7C1144.6,53,1182,75,1218,101.3C1255.4,128,1292,160,1329,149.3C1366.2,139,1403,85,1422,58.7L1440,32L1440,320L1421.5,320C1403.1,320,1366,320,1329,320C1292.3,320,1255,320,1218,320C1181.5,320,1145,320,1108,320C1070.8,320,1034,320,997,320C960,320,923,320,886,320C849.2,320,812,320,775,320C738.5,320,702,320,665,320C627.7,320,591,320,554,320C516.9,320,480,320,443,320C406.2,320,369,320,332,320C295.4,320,258,320,222,320C184.6,320,148,320,111,320C73.8,320,37,320,18,320L0,320Z"></path></svg>